<svg width="100%" height="100%" viewBox="0 0 64 64" fill="none" xmlns="http://www.w3.org/2000/svg">
<path d="M59.6 4.4L38.4 3L3 38.4L25.6 61L61 25.6L59.6 4.4ZM48 19C47.2089 19 46.4355 18.7654 45.7777 18.3259C45.1199 17.8864 44.6072 17.2616 44.3045 16.5307C44.0017 15.7998 43.9225 14.9956 44.0769 14.2196C44.2312 13.4437 44.6122 12.731 45.1716 12.1716C45.731 11.6122 46.4437 11.2312 47.2196 11.0769C47.9956 10.9225 48.7998 11.0017 49.5307 11.3045C50.2616 11.6072 50.8864 12.1199 51.3259 12.7777C51.7654 13.4355 52 14.2089 52 15C52 16.0609 51.5786 17.0783 50.8284 17.8284C50.0783 18.5786 49.0609 19 48 19Z" fill="#FFD879"/>
<path opacity="0.15" d="M41.2 3.2L38.4 3L3 38.4L25.6 61L29.1 57.5L8 36.4L41.2 3.2Z" fill="#000064"/>
<path d="M25.6 61L3 38.4L38.4 3L59.6 4.4L61 25.6L25.6 61Z" stroke="#2E4369" stroke-width="2" stroke-linecap="round" stroke-linejoin="round"/>
<path d="M48 19C50.2091 19 52 17.2091 52 15C52 12.7909 50.2091 11 48 11C45.7909 11 44 12.7909 44 15C44 17.2091 45.7909 19 48 19Z" stroke="#2E4369" stroke-width="2" stroke-linecap="round" stroke-linejoin="round"/>
<path d="M25.6 27L31.3 32.7M31.3 21.4L42.6 32.7L31.3 21.4ZM20 32.7L28.5 41.2L20 32.7Z" stroke="#2E4369" stroke-width="2" stroke-linecap="round" stroke-linejoin="round"/>
</svg>
