<svg width="20" height="20" viewBox="0 0 20 20" fill="none" xmlns="http://www.w3.org/2000/svg">
<path d="M16.6668 10.833V4.99967C16.6668 4.55765 16.4912 4.13372 16.1787 3.82116C15.8661 3.5086 15.4422 3.33301 15.0002 3.33301H5.00016C4.55814 3.33301 4.13421 3.5086 3.82165 3.82116C3.50909 4.13372 3.3335 4.55765 3.3335 4.99967V10.833M16.6668 10.833V14.9997C16.6668 15.4417 16.4912 15.8656 16.1787 16.1782C15.8661 16.4907 15.4422 16.6663 15.0002 16.6663H5.00016C4.55814 16.6663 4.13421 16.4907 3.82165 16.1782C3.50909 15.8656 3.3335 15.4417 3.3335 14.9997V10.833M16.6668 10.833H14.5118C14.2908 10.8331 14.0789 10.9209 13.9227 11.0772L11.911 13.0888C11.7548 13.2451 11.5428 13.333 11.3218 13.333H8.6785C8.4575 13.333 8.24557 13.2451 8.08933 13.0888L6.07766 11.0772C5.92142 10.9209 5.70949 10.8331 5.4885 10.833H3.3335" stroke="#FD3C01" stroke-linecap="round" stroke-linejoin="round"/>
</svg>
