<svg width="16" height="16" viewBox="0 0 16 16" fill="none" xmlns="http://www.w3.org/2000/svg">
<path d="M14.6668 8.83301V2.99967C14.6668 2.55765 14.4912 2.13372 14.1787 1.82116C13.8661 1.5086 13.4422 1.33301 13.0002 1.33301H3.00016C2.55814 1.33301 2.13421 1.5086 1.82165 1.82116C1.50909 2.13372 1.3335 2.55765 1.3335 2.99967V8.83301M14.6668 8.83301V12.9997C14.6668 13.4417 14.4912 13.8656 14.1787 14.1782C13.8661 14.4907 13.4422 14.6663 13.0002 14.6663H3.00016C2.55814 14.6663 2.13421 14.4907 1.82165 14.1782C1.50909 13.8656 1.3335 13.4417 1.3335 12.9997V8.83301M14.6668 8.83301H12.5118C12.2908 8.83305 12.0789 8.92088 11.9227 9.07717L9.911 11.0888C9.75475 11.2451 9.54282 11.333 9.32183 11.333H6.6785C6.4575 11.333 6.24557 11.2451 6.08933 11.0888L4.07766 9.07717C3.92142 8.92088 3.70949 8.83305 3.4885 8.83301H1.3335" stroke="#656565" stroke-linecap="round" stroke-linejoin="round"/>
</svg>
