<svg width="150" height="150" viewBox="0 0 150 150" fill="none" xmlns="http://www.w3.org/2000/svg">
<path d="M75 145.312C113.833 145.312 145.312 113.833 145.312 75C145.312 36.1675 113.833 4.6875 75 4.6875C36.1675 4.6875 4.6875 36.1675 4.6875 75C4.6875 113.833 36.1675 145.312 75 145.312Z" fill="#FFCC66"/>
<path opacity="0.2" d="M140.623 89.0625C140.624 93.7744 140.232 98.4782 139.451 103.125C144.122 92.4239 146.053 80.7283 145.073 69.0937C144.092 57.4592 140.229 46.252 133.833 36.4838C127.438 26.7156 118.71 18.6939 108.438 13.1427C98.1663 7.59157 86.6739 4.68573 74.998 4.6875L66.0918 5.39063C86.602 7.79991 105.516 17.6475 119.252 33.0681C132.988 48.4886 140.592 68.4113 140.623 89.0625Z" fill="white"/>
<path opacity="0.15" d="M18.7497 65.6249C18.7333 55.4663 20.9258 45.4257 25.1751 36.1986C29.4244 26.9715 35.629 18.7785 43.359 12.1874C34.4887 16.6704 26.6695 22.983 20.4173 30.7089C14.165 38.4348 9.62163 47.3984 7.08686 57.0085C4.55209 66.6187 4.0835 76.6571 5.71198 86.4616C7.34047 96.2661 11.029 105.614 16.5344 113.889C22.0398 122.163 29.2368 129.177 37.651 134.467C46.0651 139.757 55.5051 143.203 65.3484 144.577C75.1917 145.952 85.2146 145.225 94.7561 142.442C104.298 139.66 113.141 134.887 120.703 128.437C109.981 133.84 98.0553 136.407 86.0606 135.895C74.066 135.382 62.4023 131.807 52.1809 125.51C41.9594 119.212 33.5206 110.403 27.6686 99.9198C21.8165 89.4371 18.746 77.6305 18.7497 65.6249Z" fill="#000064"/>
<path d="M51.5625 65.625C54.1513 65.625 56.25 63.5263 56.25 60.9375C56.25 58.3487 54.1513 56.25 51.5625 56.25C48.9737 56.25 46.875 58.3487 46.875 60.9375C46.875 63.5263 48.9737 65.625 51.5625 65.625Z" fill="#64738F"/>
<path d="M98.4375 65.625C101.026 65.625 103.125 63.5263 103.125 60.9375C103.125 58.3487 101.026 56.25 98.4375 56.25C95.8487 56.25 93.75 58.3487 93.75 60.9375C93.75 63.5263 95.8487 65.625 98.4375 65.625Z" fill="#64738F"/>
<path d="M75 145.312C113.833 145.312 145.312 113.833 145.312 75C145.312 36.1675 113.833 4.6875 75 4.6875C36.1675 4.6875 4.6875 36.1675 4.6875 75C4.6875 113.833 36.1675 145.312 75 145.312Z" stroke="#2E4369" stroke-width="2" stroke-linecap="round" stroke-linejoin="round"/>
<path d="M107.576 112.969C103.508 108.374 98.5104 104.696 92.9146 102.177C87.3188 99.6577 81.252 98.3551 75.1152 98.3551C68.9785 98.3551 62.9117 99.6577 57.3159 102.177C51.7201 104.696 46.7227 108.374 42.6543 112.969" stroke="#2E4369" stroke-width="2" stroke-linecap="round" stroke-linejoin="round"/>
<path d="M51.5625 65.625C54.1513 65.625 56.25 63.5263 56.25 60.9375C56.25 58.3487 54.1513 56.25 51.5625 56.25C48.9737 56.25 46.875 58.3487 46.875 60.9375C46.875 63.5263 48.9737 65.625 51.5625 65.625Z" stroke="#2E4369" stroke-width="2" stroke-linecap="round" stroke-linejoin="round"/>
<path d="M98.4375 65.625C101.026 65.625 103.125 63.5263 103.125 60.9375C103.125 58.3487 101.026 56.25 98.4375 56.25C95.8487 56.25 93.75 58.3487 93.75 60.9375C93.75 63.5263 95.8487 65.625 98.4375 65.625Z" stroke="#2E4369" stroke-width="2" stroke-linecap="round" stroke-linejoin="round"/>
</svg>
