<svg width="40" height="40" viewBox="0 0 53 53" fill="none" xmlns="http://www.w3.org/2000/svg">
<path d="M46.375 28.1562C47.0275 28.1562 47.6736 28.0277 48.2765 27.778C48.8793 27.5283 49.427 27.1623 49.8884 26.7009C50.3498 26.2395 50.7158 25.6918 50.9655 25.089C51.2152 24.4861 51.3438 23.84 51.3438 23.1875C51.3438 22.535 51.2152 21.8889 50.9655 21.286C50.7158 20.6832 50.3498 20.1355 49.8884 19.6741C49.427 19.2127 48.8793 18.8467 48.2765 18.597C47.6736 18.3473 47.0275 18.2188 46.375 18.2188V28.1562ZM6.625 14.9062C5.30721 14.9062 4.04338 15.4297 3.11156 16.3616C2.17974 17.2934 1.65625 18.5572 1.65625 19.875V26.5C1.65625 27.8178 2.17974 29.0816 3.11156 30.0134C4.04338 30.9453 5.30721 31.4688 6.625 31.4688H16.5625V14.9062H6.625Z" fill="#ED5858"/>
<path d="M21.5312 14.9062H16.5625V31.4688H21.5312C30.4865 31.4924 39.1966 34.3958 46.375 39.75V6.625C39.083 11.7579 30.4446 14.6374 21.5312 14.9062Z" fill="#FFF6E3"/>
<path opacity="0.14" d="M18.2188 25.6719H6.625C5.30721 25.6719 4.04338 25.1484 3.11156 24.2166C2.17974 23.2847 1.65625 22.0209 1.65625 20.7031V26.5C1.65625 27.8178 2.17974 29.0816 3.11156 30.0134C4.04338 30.9453 5.30721 31.4688 6.625 31.4688H21.5312C30.4865 31.4924 39.1966 34.3958 46.375 39.75V33.9531C39.1966 28.5989 30.4865 25.6956 21.5312 25.6719H18.2188ZM46.375 18.2188V28.1563C47.2469 28.1572 48.1037 27.9287 48.8594 27.4938V18.8813C48.1037 18.4463 47.2469 18.2178 46.375 18.2188Z" fill="#000064"/>
<path d="M46.375 28.1562C47.0275 28.1563 47.6736 28.0277 48.2765 27.778C48.8793 27.5283 49.427 27.1623 49.8884 26.7009C50.3498 26.2395 50.7158 25.6918 50.9655 25.089C51.2152 24.4861 51.3437 23.84 51.3438 23.1875C51.3437 22.535 51.2152 21.8889 50.9655 21.286C50.7158 20.6832 50.3498 20.1355 49.8884 19.6741C49.427 19.2127 48.8793 18.8467 48.2765 18.597C47.6736 18.3473 47.0275 18.2187 46.375 18.2188M16.5625 31.4688C16.5625 36.4375 16.5625 43.0625 24.8438 46.375L16.5625 31.4688ZM16.5625 14.9062V31.4688V14.9062Z" stroke="#2E4369" stroke-width="2" stroke-miterlimit="10" stroke-linecap="round" stroke-linejoin="round"/>
<path d="M18.2188 31.4688H6.625C5.30721 31.4687 4.04338 30.9453 3.11156 30.0134C2.17974 29.0816 1.65625 27.8178 1.65625 26.5V19.875C1.65625 18.5572 2.17974 17.2934 3.11156 16.3616C4.04338 15.4297 5.30721 14.9063 6.625 14.9062H21.5312C30.4446 14.6374 39.083 11.7579 46.375 6.625V39.75C39.1966 34.3958 30.4865 31.4924 21.5312 31.4688H18.2188Z" stroke="#2E4369" stroke-width="2" stroke-miterlimit="10" stroke-linecap="round" stroke-linejoin="round"/>
</svg>
