<svg width="100%" height="100%" viewBox="0 0 64 64" fill="none" xmlns="http://www.w3.org/2000/svg">
<path d="M47.6 29H4.4C3.07452 29 2 30.0745 2 31.4V56.6C2 57.9255 3.07452 59 4.4 59H47.6C48.9255 59 50 57.9255 50 56.6V31.4C50 30.0745 48.9255 29 47.6 29Z" fill="#69C492"/>
<path d="M53.0997 6.59999C52.9886 6.30409 52.8202 6.03304 52.6042 5.8024C52.3881 5.57176 52.1286 5.38607 51.8405 5.25598C51.5525 5.1259 51.2416 5.05399 50.9257 5.04438C50.6098 5.03477 50.2951 5.08765 49.9997 5.19999L9.59968 19.9C9.30379 20.011 9.03274 20.1794 8.80209 20.3955C8.57145 20.6116 8.38576 20.8711 8.25568 21.1591C8.1256 21.4472 8.05369 21.7581 8.04408 22.074C8.03447 22.3899 8.08735 22.7046 8.19968 23L10.0997 28.2L54.9997 11.8L53.0997 6.59999Z" fill="#7B8BAF"/>
<path d="M61.9 30.6L55 11.8L10 28.2L10.3 29H47.6C48.2365 29 48.847 29.2528 49.2971 29.7029C49.7471 30.153 50 30.7635 50 31.4V37.4L60.4 33.6C60.9923 33.3948 61.4807 32.9661 61.761 32.4055C62.0414 31.8449 62.0912 31.1969 61.9 30.6Z" fill="#78D1F4"/>
<path opacity="0.15" d="M50 31.4C50 30.7635 49.7471 30.153 49.2971 29.7029C48.847 29.2529 48.2365 29 47.6 29H4.4C3.76348 29 3.15303 29.2529 2.70294 29.7029C2.25286 30.153 2 30.7635 2 31.4V37H50V31.4Z" fill="#000064"/>
<path d="M10.3001 29L8.10007 22.9C7.98774 22.6046 7.93486 22.2899 7.94447 21.974C7.95408 21.6581 8.02599 21.3472 8.15607 21.0592C8.28615 20.7711 8.47184 20.5116 8.70248 20.2955C8.93313 20.0795 9.20418 19.9111 9.50007 19.8L50.1001 5.10001C50.3955 4.98768 50.7102 4.9348 51.0261 4.94441C51.342 4.95402 51.6529 5.02593 51.9409 5.15601C52.2289 5.28609 52.4885 5.47178 52.7045 5.70242C52.9206 5.93307 53.089 6.20411 53.2001 6.50001L61.9001 30.5C62.0124 30.7954 62.0653 31.1101 62.0557 31.426C62.0461 31.7419 61.9742 32.0528 61.8441 32.3409C61.714 32.6289 61.5283 32.8884 61.2977 33.1045C61.067 33.3206 60.796 33.489 60.5001 33.6L50.0001 37.4M10.1001 28.2L55.0001 11.8M46.7001 21.6L51.2001 20" stroke="#2E4369" stroke-width="2" stroke-linecap="round" stroke-linejoin="round"/>
<path d="M47.6 29H4.4C3.07452 29 2 30.0745 2 31.4V56.6C2 57.9255 3.07452 59 4.4 59H47.6C48.9255 59 50 57.9255 50 56.6V31.4C50 30.0745 48.9255 29 47.6 29Z" stroke="#2E4369" stroke-width="2" stroke-linecap="round" stroke-linejoin="round"/>
<path d="M40 51H42M10 43H24H10ZM36 37H42H36ZM10 51H12H10ZM20 51H22H20ZM30 51H32H30Z" stroke="#2E4369" stroke-width="2" stroke-linecap="round" stroke-linejoin="round"/>
</svg>
