<svg width="16" height="16" viewBox="0 0 16 16" fill="none" xmlns="http://www.w3.org/2000/svg">
<path d="M7.16672 2.90167V14.0333C7.16647 14.3787 7.04434 14.7129 6.82184 14.9771C6.59934 15.2413 6.29075 15.4185 5.95043 15.4774C5.61011 15.5364 5.2599 15.4734 4.96149 15.2994C4.66309 15.1255 4.43564 14.8518 4.31922 14.5267L2.53005 9.40167M2.53005 9.40167C1.82274 9.10093 1.24104 8.56588 0.883413 7.88555C0.525783 7.20523 0.414184 6.42223 0.5675 5.66908C0.720817 4.91593 1.12963 4.23888 1.72476 3.7525C2.31989 3.26612 3.06479 3.00029 3.83339 3H5.36005C8.77672 3 11.7142 1.97167 13.0001 0.5V12.1667C11.7142 10.695 8.77755 9.66667 5.36005 9.66667H3.83339C3.38558 9.66732 2.94226 9.57663 2.53005 9.40167ZM13.0001 8.83333C13.6631 8.83333 14.299 8.56994 14.7678 8.1011C15.2367 7.63226 15.5001 6.99637 15.5001 6.33333C15.5001 5.67029 15.2367 5.03441 14.7678 4.56557C14.299 4.09673 13.6631 3.83333 13.0001 3.83333V8.83333Z" stroke="#FD3C01" stroke-linecap="round" stroke-linejoin="round"/>
</svg>
