<svg width="100%" height="100%" viewBox="0 0 64 64" fill="none" xmlns="http://www.w3.org/2000/svg">
<path d="M36 8V12H28V8H8V62H56V8H36Z" fill="#E5EDFF"/>
<path d="M34.6679 31.3681C35.8795 30.7661 36.8522 29.7723 37.4279 28.548C38.0037 27.3237 38.1488 25.9407 37.8396 24.6236C37.5305 23.3065 36.7852 22.1325 35.7249 21.2922C34.6645 20.4519 33.3513 19.9946 31.9984 19.9946C30.6454 19.9946 29.3322 20.4519 28.2718 21.2922C27.2115 22.1325 26.4662 23.3065 26.1571 24.6236C25.8479 25.9407 25.993 27.3237 26.5688 28.548C27.1446 29.7723 28.1172 30.7661 29.3289 31.3681C27.2007 31.913 25.3189 33.1607 23.9886 34.909C22.6584 36.6573 21.9576 38.8036 21.9999 41.0001H41.9999C42.0416 38.8033 41.3403 36.6568 40.0095 34.9086C38.6787 33.1603 36.7964 31.9127 34.6679 31.3681Z" fill="#71C3F3"/>
<path d="M44 49H20C19.7348 49 19.4804 48.8946 19.2929 48.7071C19.1054 48.5196 19 48.2652 19 48C19 47.7348 19.1054 47.4804 19.2929 47.2929C19.4804 47.1054 19.7348 47 20 47H44C44.2652 47 44.5196 47.1054 44.7071 47.2929C44.8946 47.4804 45 47.7348 45 48C45 48.2652 44.8946 48.5196 44.7071 48.7071C44.5196 48.8946 44.2652 49 44 49ZM38 55H26C25.7348 55 25.4804 54.8946 25.2929 54.7071C25.1054 54.5196 25 54.2652 25 54C25 53.7348 25.1054 53.4804 25.2929 53.2929C25.4804 53.1054 25.7348 53 26 53H38C38.2652 53 38.5196 53.1054 38.7071 53.2929C38.8946 53.4804 39 53.7348 39 54C39 54.2652 38.8946 54.5196 38.7071 54.7071C38.5196 54.8946 38.2652 55 38 55Z" fill="#7B8BAF"/>
<path opacity="0.1" d="M25.998 13.999V7.99902L33.998 8.00002L35.999 11.999L33.998 14L25.998 13.999Z" fill="#000064"/>
<path d="M28 2H36V11.998H28V2Z" fill="#F27E7C"/>
<path opacity="0.15" d="M31.9998 20C30.6489 20.0026 29.3384 20.4609 28.2804 21.301C27.2224 22.141 26.4788 23.3134 26.1701 24.6286C25.8613 25.9437 26.0054 27.3246 26.579 28.5477C27.1526 29.7708 28.1222 30.7645 29.3308 31.368C27.2023 31.9125 25.3201 33.1601 23.9894 34.9084C22.6587 36.6568 21.9577 38.8033 21.9998 41H31.9998V20Z" fill="#000064"/>
</svg>
