<svg width="56" height="56" viewBox="0 0 56 56" fill="none" xmlns="http://www.w3.org/2000/svg">
<path d="M19.25 28L25.0833 33.8333L36.75 22.1667M54.25 28C54.25 31.4472 53.571 34.8606 52.2518 38.0454C50.9327 41.2302 48.9991 44.124 46.5616 46.5616C44.124 48.9991 41.2302 50.9327 38.0454 52.2518C34.8606 53.571 31.4472 54.25 28 54.25C24.5528 54.25 21.1394 53.571 17.9546 52.2518C14.7698 50.9327 11.876 48.9991 9.43845 46.5616C7.00091 44.124 5.06735 41.2302 3.74816 38.0454C2.42898 34.8606 1.75 31.4472 1.75 28C1.75 21.0381 4.51562 14.3613 9.43845 9.43845C14.3613 4.51562 21.0381 1.75 28 1.75C34.9619 1.75 41.6387 4.51562 46.5616 9.43845C51.4844 14.3613 54.25 21.0381 54.25 28Z" stroke="#76DB26" stroke-width="2" stroke-linecap="round" stroke-linejoin="round"/>
</svg>
