<svg width="150" height="150" viewBox="0 0 150 150" fill="none" xmlns="http://www.w3.org/2000/svg">
<path d="M97.809 85.5211L134.39 122.109C135.632 123.442 136.308 125.205 136.276 127.027C136.244 128.848 135.506 130.586 134.218 131.875C132.93 133.163 131.192 133.901 129.37 133.933C127.549 133.965 125.786 133.289 124.453 132.047L88.2207 95.8196" fill="#7B8BAF"/>
<path d="M60.5062 106.95C86.1564 106.95 106.95 86.1564 106.95 60.5062C106.95 34.8561 86.1564 14.0625 60.5062 14.0625C34.8561 14.0625 14.0625 34.8561 14.0625 60.5062C14.0625 86.1564 34.8561 106.95 60.5062 106.95Z" fill="#A8BDE5"/>
<path d="M60.5031 98.5055C81.4895 98.5055 98.5023 81.4927 98.5023 60.5063C98.5023 39.5199 81.4895 22.5071 60.5031 22.5071C39.5167 22.5071 22.5039 39.5199 22.5039 60.5063C22.5039 81.4927 39.5167 98.5055 60.5031 98.5055Z" fill="#A5E4F4"/>
<path opacity="0.5" d="M98.5039 60.5062C98.5077 55.4749 97.509 50.4933 95.5661 45.8523C93.6233 41.2112 90.7752 37.0038 87.1883 33.4757L33.4766 87.1874C37.0045 90.7735 41.2117 93.6205 45.8524 95.5621C50.4931 97.5038 55.4742 98.5012 60.5047 98.496C60.7602 98.496 61.0063 98.4632 61.2594 98.4562L98.4664 61.2609C98.4711 61.0077 98.5039 60.7593 98.5039 60.5062Z" fill="white"/>
</svg>
