<?xml version="1.0" encoding="utf-8"?>
<svg id="master-artboard" viewBox="0 0 979.1047973632812 977.4178466796875" xmlns="http://www.w3.org/2000/svg" width="979.1047973632812px" height="977.4178466796875px" version="1.1" style="shape-rendering:geometricPrecision; text-rendering:geometricPrecision; image-rendering:optimizeQuality; fill-rule:evenodd; clip-rule:evenodd"><defs><radialGradient id="gradient-0" gradientUnits="objectBoundingBox" cx="0.5" cy="0.5" r="0.5">
                <stop offset="0" style="stop-color: #0077ff"/>
                <stop offset="1" style="stop-color: #004799"/>
              </radialGradient></defs><rect id="ee-background" x="0" y="0" width="979.1047973632812" height="977.4178466796875" style="fill: rgb(24, 119, 242); fill-opacity: 1; pointer-events: none;"/><g transform="matrix(1.914062738418579, 0, 0, 1.914062738418579, -1.7386932373046875, -2.582179069519043)"><path d="M 76.800003 0 H 435.199997 A 76.800003 76.800003 0 0 1 512 76.800003 V 435.199997 A 76.800003 76.800003 0 0 1 435.199997 512 H 76.800003 A 76.800003 76.800003 0 0 1 0 435.199997 V 76.800003 A 76.800003 76.800003 0 0 1 76.800003 0 Z" fill="#1877f2"/><path d="M355.6 330l11.4-74h-71v-48c0-20.2 9.9-40 41.7-40H370v-63s-29.3-5-57.3-5c-58.5 0-96.7 35.4-96.7 99.6V256h-65v74h65v182h80V330h59.6z" fill="#fff"/></g></svg>