<?xml version="1.0" encoding="utf-8"?>
<svg id="master-artboard" viewBox="0 0 850 850" xmlns="http://www.w3.org/2000/svg" width="850px" height="850px" version="1.1" style="shape-rendering:geometricPrecision; text-rendering:geometricPrecision; image-rendering:optimizeQuality; fill-rule:evenodd; clip-rule:evenodd"><rect id="ee-background" x="0" y="0" width="850" height="850" style="fill: rgb(193, 53, 132); fill-opacity: 1; pointer-events: none;"/><defs><radialGradient cx="-578.95" cy="-837.6" gradientTransform="translate(499.5 629.5) scale(0.75)" gradientUnits="userSpaceOnUse" id="radial-gradient" r="197.06"><stop offset="0" stop-color="#f9ed32"/><stop offset="0.36" stop-color="#ee2a7b"/><stop offset="0.44" stop-color="#d22a8a"/><stop offset="0.6" stop-color="#8b2ab2"/><stop offset="0.83" stop-color="#1b2af0"/><stop offset="0.88" stop-color="#002aff"/></radialGradient></defs><g transform="matrix(13.28125, 0, 0, 13.28125, 0, 0)"><title/><g data-name="3-instagram" id="_3-instagram"><path d="M 11.2 0 H 52.8 A 11.2 11.2 0 0 1 64 11.2 V 52.8 A 11.2 11.2 0 0 1 52.8 64 H 11.2 A 11.2 11.2 0 0 1 0 52.8 V 11.2 A 11.2 11.2 0 0 1 11.2 0 Z" class="cls-1" transform="translate(64 64) rotate(180)" style="fill: rgb(193, 53, 132);"/><path class="cls-2" d="M44,56H20A12,12,0,0,1,8,44V20A12,12,0,0,1,20,8H44A12,12,0,0,1,56,20V44A12,12,0,0,1,44,56ZM20,12.8A7.21,7.21,0,0,0,12.8,20V44A7.21,7.21,0,0,0,20,51.2H44A7.21,7.21,0,0,0,51.2,44V20A7.21,7.21,0,0,0,44,12.8Z" style="fill: rgb(255, 255, 255);"/><path class="cls-2" d="M32,45.6A13.6,13.6,0,1,1,45.6,32,13.61,13.61,0,0,1,32,45.6Zm0-22.4A8.8,8.8,0,1,0,40.8,32,8.81,8.81,0,0,0,32,23.2Z" style="fill: rgb(255, 255, 255);"/><path d="M 47.999999 19.200001 A 2.4 2.4 0 0 1 45.599998 21.600001 A 2.4 2.4 0 0 1 43.199998 19.200001 A 2.4 2.4 0 0 1 45.599998 16.800001 A 2.4 2.4 0 0 1 47.999999 19.200001 Z" class="cls-2" style="fill: rgb(255, 255, 255);"/></g></g></svg>