<?xml version="1.0" encoding="utf-8"?>
<svg id="master-artboard" viewBox="0 0 800 800" xmlns="http://www.w3.org/2000/svg" width="800px" height="800px" version="1.1" style="shape-rendering:geometricPrecision; text-rendering:geometricPrecision; image-rendering:optimizeQuality; fill-rule:evenodd; clip-rule:evenodd"><rect id="ee-background" x="0" y="0" width="800" height="800" style="fill: rgb(193, 53, 132); fill-opacity: 1; pointer-events: none;"/><defs><radialGradient cx="-578.95" cy="-837.6" gradientTransform="translate(499.5 629.5) scale(0.75)" gradientUnits="userSpaceOnUse" id="radial-gradient" r="197.06"><stop offset="0" stop-color="#f9ed32"/><stop offset="0.36" stop-color="#ee2a7b"/><stop offset="0.44" stop-color="#d22a8a"/><stop offset="0.6" stop-color="#8b2ab2"/><stop offset="0.83" stop-color="#1b2af0"/><stop offset="0.88" stop-color="#002aff"/></radialGradient></defs><g transform="matrix(13.28125, 0, 0, 13.28125, -18.908172607421875, -18.908203125)"><title/><g data-name="3-instagram" id="_3-instagram"><path d="M 11.2 0 H 52.8 A 11.2 11.2 0 0 1 64 11.2 V 52.8 A 11.2 11.2 0 0 1 52.8 64 H 11.2 A 11.2 11.2 0 0 1 0 52.8 V 11.2 A 11.2 11.2 0 0 1 11.2 0 Z" class="cls-1" transform="translate(64 64) rotate(180)" style="fill: rgb(193, 53, 132);"/><path class="cls-2" d="M44,56H20A12,12,0,0,1,8,44V20A12,12,0,0,1,20,8H44A12,12,0,0,1,56,20V44A12,12,0,0,1,44,56ZM20,12.8A7.21,7.21,0,0,0,12.8,20V44A7.21,7.21,0,0,0,20,51.2H44A7.21,7.21,0,0,0,51.2,44V20A7.21,7.21,0,0,0,44,12.8Z" style="fill: rgb(255, 255, 255);"/><path class="cls-2" d="M32,45.6A13.6,13.6,0,1,1,45.6,32,13.61,13.61,0,0,1,32,45.6Zm0-22.4A8.8,8.8,0,1,0,40.8,32,8.81,8.81,0,0,0,32,23.2Z" style="fill: rgb(255, 255, 255);"/><path d="M 47.999999 19.200001 A 2.4 2.4 0 0 1 45.599998 21.600001 A 2.4 2.4 0 0 1 43.199998 19.200001 A 2.4 2.4 0 0 1 45.599998 16.800001 A 2.4 2.4 0 0 1 47.999999 19.200001 Z" class="cls-2" style="fill: rgb(255, 255, 255);"/></g></g><g transform="matrix(0.868139922618866, 0, 0, 0.868139922618866, -18.908172607421875, -18.17588758468628)"><rect id="rect-1" x="0" y="0" width="979.1047973632812" height="977.4178466796875" style="fill: rgb(0, 170, 222); fill-opacity: 1; pointer-events: none;"/><g transform="matrix(15.272153854370117, 0, 0, 15.272153854370117, 0.843536317348935, 0.00001694430557108717)"><title/><g data-name="6-twitter" id="_6-twitter"><path d="M 11.2 0 H 52.8 A 11.2 11.2 0 0 1 64 11.2 V 52.8 A 11.2 11.2 0 0 1 52.8 64 H 11.2 A 11.2 11.2 0 0 1 0 52.8 V 11.2 A 11.2 11.2 0 0 1 11.2 0 Z" class="cls-1" transform="translate(64 64) rotate(180)" style="fill: rgb(0, 170, 222);"/><path class="cls-2" d="M47.2,20.8a8,8,0,0,0,4-4.8c-1.6,1.6-5,2.13-5,2.13A8,8,0,0,0,32.37,25.6H32a23.45,23.45,0,0,1-16.8-8.8S10.4,23.2,17.6,28c0,0-3.2,0-4-.8,0,0-.8,4.8,6.4,8a3.86,3.86,0,0,1-3.2,0c0,3.09,3.22,5.6,7.2,5.6,0,2.21-5.37,4-12,4C22.4,52,47.2,50.4,48.8,23.2l4-4Z" style="fill: rgb(255, 255, 255);" transform="matrix(1, 0, 0, 1, 0.00001810778667277191, -0.0000012840760064136703)"/></g></g></g></svg>