<svg width="44" height="44" viewBox="0 0 22 22" fill="none" xmlns="http://www.w3.org/2000/svg">
<path d="M3.85 3.41667L3.41667 1.25H1.25L3.85 3.41667ZM3.85 3.41667H20.75L16.4167 12.0833H5.58333M3.85 3.41667L5.58333 12.0833M5.58333 12.0833L3.09925 14.5674C2.41675 15.2499 2.89992 16.4167 3.86517 16.4167H16.4167M16.4167 16.4167C15.8421 16.4167 15.291 16.6449 14.8846 17.0513C14.4783 17.4576 14.25 18.0087 14.25 18.5833C14.25 19.1579 14.4783 19.709 14.8846 20.1154C15.291 20.5217 15.8421 20.75 16.4167 20.75C16.9913 20.75 17.5424 20.5217 17.9487 20.1154C18.3551 19.709 18.5833 19.1579 18.5833 18.5833C18.5833 18.0087 18.3551 17.4576 17.9487 17.0513C17.5424 16.6449 16.9913 16.4167 16.4167 16.4167ZM7.75 18.5833C7.75 19.1579 7.52173 19.709 7.11539 20.1154C6.70907 20.5217 6.15797 20.75 5.58333 20.75C5.0087 20.75 4.4576 20.5217 4.05127 20.1154C3.64494 19.709 3.41667 19.1579 3.41667 18.5833C3.41667 18.0087 3.64494 17.4576 4.05127 17.0513C4.4576 16.6449 5.0087 16.4167 5.58333 16.4167C6.15797 16.4167 6.70907 16.6449 7.11539 17.0513C7.52173 17.4576 7.75 18.0087 7.75 18.5833Z" stroke="#656565" stroke-linecap="round" stroke-linejoin="round"/>
</svg>
